{"accessors" : [{"bufferView" : 0, "byteOffset" : 0, "componentType" : 5123, "count" : 684, "type" : "SCALAR", "max" : [603], "min" : [0]}, {"bufferView" : 1, "byteOffset" : 0, "componentType" : 5126, "count" : 604, "type" : "VEC3", "max" : [0.42985600233078003, 0.8707360029220581, -2.0352790355682373], "min" : [-0.43512800335884094, 0.16600799560546875, -3.419250011444092], "name" : "POSITION"}, {"bufferView" : 1, "byteOffset" : 12, "componentType" : 5126, "count" : 604, "type" : "VEC2", "max" : [1, 2], "min" : [0, 1], "name" : "TEXCOORD_0"}, {"bufferView" : 0, "byteOffset" : 1368, "componentType" : 5123, "count" : 672, "type" : "SCALAR", "max" : [568], "min" : [0]}, {"bufferView" : 2, "byteOffset" : 0, "componentType" : 5126, "count" : 569, "type" : "VEC3", "max" : [0.20648500323295593, 2.6778829097747803, 0.08214300125837326], "min" : [-0.20648500323295593, 2.5593268871307373, -0.03744800016283989], "name" : "POSITION"}, {"bufferView" : 2, "byteOffset" : 12, "componentType" : 5126, "count" : 569, "type" : "VEC2", "max" : [1, 2], "min" : [0, 1], "name" : "TEXCOORD_0"}, {"bufferView" : 0, "byteOffset" : 2712, "componentType" : 5123, "count" : 1032, "type" : "SCALAR", "max" : [928], "min" : [0]}, {"bufferView" : 3, "byteOffset" : 0, "componentType" : 5126, "count" : 929, "type" : "VEC3", "max" : [0.885977029800415, 2.5731780529022217, 0.7788029909133911], "min" : [-0.885977029800415, -0.7699009776115417, -1.7541569471359253], "name" : "POSITION"}, {"bufferView" : 3, "byteOffset" : 12, "componentType" : 5126, "count" : 929, "type" : "VEC2", "max" : [1, 2], "min" : [0, 1], "name" : "TEXCOORD_0"}, {"bufferView" : 0, "byteOffset" : 4776, "componentType" : 5123, "count" : 840, "type" : "SCALAR", "max" : [738], "min" : [0]}, {"bufferView" : 4, "byteOffset" : 0, "componentType" : 5126, "count" : 739, "type" : "VEC3", "max" : [0.7828419804573059, 2.8001649379730225, 0.4083319902420044], "min" : [-0.7828419804573059, -0.03373900055885315, -2.7384610176086426], "name" : "POSITION"}, {"bufferView" : 4, "byteOffset" : 12, "componentType" : 5126, "count" : 739, "type" : "VEC2", "max" : [0.875, 2], "min" : [0.5, 1], "name" : "TEXCOORD_0"}], "asset" : {"generator" : "Aspose.3D 24.1.0", "version" : "2.0"}, "buffers" : [{"uri" : "data:application/octet-stream;base64,", "byteLength" : 71036}], "bufferViews" : [{"buffer" : 0, "byteOffset" : 0, "byteLength" : 6456, "target" : 34963}, {"buffer" : 0, "byteOffset" : 6460, "byteLength" : 13680, "byteStride" : 20, "target" : 34962}, {"buffer" : 0, "byteOffset" : 20144, "byteLength" : 13440, "byteStride" : 20, "target" : 34962}, {"buffer" : 0, "byteOffset" : 33588, "byteLength" : 20640, "byteStride" : 20, "target" : 34962}, {"buffer" : 0, "byteOffset" : 54232, "byteLength" : 16800, "byteStride" : 20, "target" : 34962}], "materials" : [{"name" : "initialShadingGroup", "pbrMetallicRoughness" : {"baseColorFactor" : [0.5, 0.5, 0.5, 1], "metallicFactor" : 0, "roughnessFactor" : 1}, "emissiveFactor" : [0, 0, 0], "alphaMode" : "OPAQUE", "doubleSided" : false}, {"name" : "lambert4SG", "pbrMetallicRoughness" : {"baseColorFactor" : [0.03, 0.03, 0.03, 1], "metallicFactor" : 0, "roughnessFactor" : 1}, "emissiveFactor" : [0, 0, 0], "alphaMode" : "OPAQUE", "doubleSided" : false}, {"name" : "lambert5SG", "pbrMetallicRoughness" : {"baseColorFactor" : [0.37, 0.06, 0, 1], "metallicFactor" : 0, "roughnessFactor" : 1}, "emissiveFactor" : [0, 0, 0], "alphaMode" : "OPAQUE", "doubleSided" : false}, {"name" : "lambert3SG", "pbrMetallicRoughness" : {"baseColorFactor" : [0.74, 0.81, 0.65, 1], "metallicFactor" : 0, "roughnessFactor" : 1}, "emissiveFactor" : [0, 0, 0], "alphaMode" : "OPAQUE", "doubleSided" : false}], "meshes" : [{"primitives" : [{"attributes" : {"POSITION" : 1, "TEXCOORD_0" : 2}, "indices" : 0, "material" : 0, "mode" : 4}, {"attributes" : {"POSITION" : 4, "TEXCOORD_0" : 5}, "indices" : 3, "material" : 1, "mode" : 4}, {"attributes" : {"POSITION" : 7, "TEXCOORD_0" : 8}, "indices" : 6, "material" : 2, "mode" : 4}, {"attributes" : {"POSITION" : 10, "TEXCOORD_0" : 11}, "indices" : 9, "material" : 3, "mode" : 4}]}], "nodes" : [{"mesh" : 0, "name" : "Node"}], "scene" : 0, "scenes" : [{"nodes" : [0]}]}